<svg viewBox="0 0 64 68" fill="none" xmlns="http://www.w3.org/2000/svg">
<path fill-rule="evenodd" clip-rule="evenodd" d="M4.07932 49.1331C5.50261 51.6394 7.20313 53.8763 9.18087 55.8439L17.9701 48.5412C16.6618 47.1564 15.5367 45.5709 14.5949 43.7847C12.8423 40.4004 11.966 36.6232 11.966 32.4533C11.966 28.2833 12.8423 24.5364 14.5949 21.2125C16.3475 17.8281 18.7347 15.169 21.7564 13.2351C24.7781 11.3012 28.1926 10.3343 32 10.3343C35.8074 10.3343 39.2219 11.3012 42.2436 13.2351C45.3258 15.169 47.7129 17.8281 49.4051 21.2125C51.1577 24.5364 52.034 28.2833 52.034 32.4533C52.034 36.6232 51.1577 40.4004 49.4051 43.7847C48.6708 45.2271 47.8056 46.5386 46.8095 47.7193L55.5919 55.016C57.2167 53.2553 58.6294 51.2944 59.83 49.1331C62.61 44.1775 64 38.6176 64 32.4533C64 26.2889 62.61 20.7592 59.83 15.864C57.1105 10.9084 53.3031 7.0406 48.4079 4.26062C43.5732 1.42021 38.1341 0 32.0907 0C25.9868 0 20.4873 1.42021 15.5921 4.26062C10.6969 7.0406 6.8593 10.9084 4.07932 15.864C1.35977 20.7592 0 26.2889 0 32.4533C0 38.6176 1.35977 44.1775 4.07932 49.1331Z" fill="#DFDFDF"/>
<path d="M33.7693 23.3671C33.5989 22.3724 32.1704 22.3724 32 23.3671L27.6081 49.0056C27.572 49.2165 27.4616 49.4076 27.297 49.5444L7.28961 66.1672C6.51341 66.8121 7.22768 68.0493 8.17428 67.6995L32.5735 58.6837C32.7743 58.6095 32.995 58.6095 33.1957 58.6837L45.3954 63.1916L57.595 67.6995C58.5416 68.0493 59.2558 66.8121 58.4796 66.1672L38.4722 49.5444C38.3076 49.4076 38.1973 49.2165 38.1611 49.0056L33.7693 23.3671Z" fill="#84FF00"/>
</svg>
