<svg viewBox="0 0 851 185" fill="none" xmlns="http://www.w3.org/2000/svg">
<path d="M150.978 41.208H176.026L199.862 111.706L223.294 41.208H248.544L211.376 143.016H188.146L150.978 41.208Z" fill="#09090B"/>
<path d="M305.762 144.632C294.988 144.632 285.696 142.141 277.886 137.158C270.21 132.175 264.284 125.644 260.11 117.564C256.07 109.484 254.05 100.865 254.05 91.708C254.05 82.5507 255.935 73.9993 259.706 66.054C263.611 58.1087 269.267 51.712 276.674 46.864C284.215 42.016 293.305 39.592 303.944 39.592C314.717 39.592 323.807 41.9487 331.214 46.662C338.62 51.3753 344.142 57.4353 347.778 64.842C351.414 72.2487 353.232 80.194 353.232 88.678C353.232 91.7753 353.097 94.6707 352.828 97.364H268.392V80.396H328.386C327.982 73.7973 325.625 68.478 321.316 64.438C317.006 60.398 311.216 58.378 303.944 58.378C295.594 58.378 289.13 61.206 284.552 66.862C279.973 72.518 277.684 80.6653 277.684 91.304C277.684 97.9027 278.828 103.693 281.118 108.676C283.407 113.524 286.639 117.295 290.814 119.988C295.123 122.681 300.106 124.028 305.762 124.028C312.091 124.028 317.276 122.749 321.316 120.19C325.49 117.631 328.184 113.928 329.396 109.08H353.636C351.75 119.853 346.431 128.472 337.678 134.936C329.059 141.4 318.42 144.632 305.762 144.632Z" fill="#09090B"/>
<path d="M373.143 41.208H397.989V59.186C400.413 52.722 403.712 48.1433 407.887 45.45C412.062 42.622 417.448 41.208 424.047 41.208H435.965V62.014H420.007C412.331 62.014 406.742 64.9767 403.241 70.902C399.74 76.6927 397.989 84.7053 397.989 94.94V143.016H373.143V41.208Z" fill="#09090B"/>
<path d="M450.866 41.208H475.712V53.53C478.809 49.3553 483.051 45.9887 488.438 43.43C493.959 40.8713 499.884 39.592 506.214 39.592C515.91 39.592 524.326 41.814 531.464 46.258C538.601 50.702 544.055 56.8967 547.826 64.842C551.596 72.7873 553.482 81.8773 553.482 92.112C553.482 102.347 551.596 111.437 547.826 119.382C544.055 127.327 538.601 133.522 531.464 137.966C524.461 142.41 516.179 144.632 506.618 144.632C500.154 144.632 494.094 143.353 488.438 140.794C482.916 138.101 478.674 134.599 475.712 130.29V184.224H450.866V41.208ZM501.568 123.22C509.782 123.22 516.381 120.392 521.364 114.736C526.346 109.08 528.838 101.539 528.838 92.112C528.838 82.6853 526.346 75.144 521.364 69.488C516.381 63.832 509.782 61.004 501.568 61.004C493.218 61.004 486.552 63.832 481.57 69.488C476.587 75.144 474.096 82.6853 474.096 92.112C474.096 101.539 476.587 109.08 481.57 114.736C486.552 120.392 493.218 123.22 501.568 123.22Z" fill="#09090B"/>
<path d="M602.465 144.632C595.866 144.632 590.008 143.353 584.891 140.794C579.774 138.101 575.801 134.465 572.973 129.886C570.145 125.173 568.731 119.853 568.731 113.928C568.731 104.097 572.232 96.2867 579.235 90.496C586.238 84.5707 595.732 81.608 607.717 81.608H624.887C627.715 81.608 629.735 81.0693 630.947 79.992C632.294 78.9147 632.967 77.2987 632.967 75.144C632.967 70.1613 631.149 66.1213 627.513 63.024C623.877 59.9267 618.827 58.378 612.363 58.378C608.054 58.378 604.283 59.186 601.051 60.802C597.954 62.2833 595.53 64.3707 593.779 67.064C592.163 69.6227 591.22 72.4507 590.951 75.548H568.731C569.135 68.8147 571.222 62.7547 574.993 57.368C578.764 51.8467 583.948 47.5373 590.547 44.44C597.28 41.208 604.889 39.592 613.373 39.592C621.992 39.592 629.668 41.208 636.401 44.44C643.134 47.5373 648.319 51.914 651.955 57.57C655.726 63.226 657.611 69.8247 657.611 77.366V143.016H632.967V127.866C630.947 132.983 627.176 137.091 621.655 140.188C616.134 143.151 609.737 144.632 602.465 144.632ZM608.525 126.25C616.066 126.25 621.992 123.826 626.301 118.978C630.745 114.13 632.967 107.868 632.967 100.192V98.778H610.949C605.293 98.778 600.849 100.057 597.617 102.616C594.385 105.04 592.769 108.474 592.769 112.918C592.769 116.958 594.183 120.19 597.011 122.614C599.839 125.038 603.677 126.25 608.525 126.25Z" fill="#09090B"/>
<path d="M716.819 144.632C704.295 144.632 694.33 141.535 686.923 135.34C679.651 129.145 675.611 120.459 674.803 109.282H696.619C697.158 114.265 699.178 118.237 702.679 121.2C706.315 124.028 711.028 125.442 716.819 125.442C721.802 125.442 725.842 124.365 728.939 122.21C732.171 120.055 733.787 117.16 733.787 113.524C733.787 110.561 732.844 108.272 730.959 106.656C729.074 105.04 726.784 103.828 724.091 103.02C721.532 102.212 717.694 101.337 712.577 100.394C705.305 99.182 699.312 97.8353 694.599 96.354C690.02 94.738 686.048 91.91 682.681 87.87C679.314 83.6953 677.631 77.9047 677.631 70.498C677.631 64.5727 679.18 59.2533 682.277 54.54C685.509 49.8267 689.886 46.1907 695.407 43.632C700.928 40.9387 707.19 39.592 714.193 39.592C726.448 39.592 736.144 42.5547 743.281 48.48C750.418 54.2707 754.324 62.1487 754.997 72.114H733.181C732.642 67.8047 730.69 64.3707 727.323 61.812C723.956 59.1187 719.782 57.772 714.799 57.772C710.22 57.772 706.45 58.782 703.487 60.802C700.659 62.822 699.245 65.7173 699.245 69.488C699.245 72.316 700.12 74.538 701.871 76.154C703.756 77.77 706.046 78.9147 708.739 79.588C711.567 80.2613 715.54 80.9347 720.657 81.608C727.929 82.82 733.922 84.1667 738.635 85.648C743.483 87.1293 747.59 89.9573 750.957 94.132C754.324 98.172 756.007 103.963 756.007 111.504C756.007 121.873 752.506 130.021 745.503 135.946C738.5 141.737 728.939 144.632 716.819 144.632Z" fill="#09090B"/>
<path d="M810.915 144.632C798.391 144.632 788.425 141.535 781.019 135.34C773.747 129.145 769.707 120.459 768.899 109.282H790.715C791.253 114.265 793.273 118.237 796.775 121.2C800.411 124.028 805.124 125.442 810.915 125.442C815.897 125.442 819.937 124.365 823.035 122.21C826.267 120.055 827.883 117.16 827.883 113.524C827.883 110.561 826.94 108.272 825.055 106.656C823.169 105.04 820.88 103.828 818.187 103.02C815.628 102.212 811.79 101.337 806.673 100.394C799.401 99.182 793.408 97.8353 788.695 96.354C784.116 94.738 780.143 91.91 776.777 87.87C773.41 83.6953 771.727 77.9047 771.727 70.498C771.727 64.5727 773.275 59.2533 776.373 54.54C779.605 49.8267 783.981 46.1907 789.503 43.632C795.024 40.9387 801.286 39.592 808.289 39.592C820.543 39.592 830.239 42.5547 837.377 48.48C844.514 54.2707 848.419 62.1487 849.093 72.114H827.277C826.738 67.8047 824.785 64.3707 821.419 61.812C818.052 59.1187 813.877 57.772 808.895 57.772C804.316 57.772 800.545 58.782 797.583 60.802C794.755 62.822 793.341 65.7173 793.341 69.488C793.341 72.316 794.216 74.538 795.967 76.154C797.852 77.77 800.141 78.9147 802.835 79.588C805.663 80.2613 809.635 80.9347 814.753 81.608C822.025 82.82 828.017 84.1667 832.731 85.648C837.579 87.1293 841.686 89.9573 845.053 94.132C848.419 98.172 850.103 103.963 850.103 111.504C850.103 121.873 846.601 130.021 839.599 135.946C832.596 141.737 823.035 144.632 810.915 144.632Z" fill="#09090B"/>
<path fill-rule="evenodd" clip-rule="evenodd" d="M9.09 109.484C12.2615 115.069 16.0508 120.053 20.4578 124.438L40.043 108.165C37.1277 105.079 34.6207 101.546 32.522 97.566C28.6167 90.0247 26.664 81.608 26.664 72.316C26.664 63.024 28.6167 54.6747 32.522 47.268C36.4273 39.7267 41.7467 33.8013 48.48 29.492C55.2133 25.1827 62.822 23.028 71.306 23.028C79.79 23.028 87.3987 25.1827 94.132 29.492C101 33.8013 106.319 39.7267 110.09 47.268C113.995 54.6747 115.948 63.024 115.948 72.316C115.948 81.608 113.995 90.0247 110.09 97.566C108.454 100.78 106.526 103.703 104.306 106.334L123.876 122.593C127.497 118.669 130.645 114.3 133.32 109.484C139.515 98.4413 142.612 86.052 142.612 72.316C142.612 58.58 139.515 46.258 133.32 35.35C127.26 24.3073 118.776 15.6887 107.868 9.494C97.0947 3.16467 84.9747 0 71.508 0C57.9067 0 45.652 3.16467 34.744 9.494C23.836 15.6887 15.2847 24.3073 9.09 35.35C3.03 46.258 0 58.58 0 72.316C0 86.052 3.03 98.4413 9.09 109.484Z" fill="#09090B"/>
<path d="M75.2484 52.0686C74.8688 49.8521 71.6855 49.8521 71.3059 52.0686L61.5194 109.199C61.4389 109.669 61.1931 110.095 60.8262 110.4L16.2435 147.441C14.5138 148.878 16.1055 151.634 18.2148 150.855L72.584 130.765C73.0313 130.6 73.523 130.6 73.9704 130.765L101.155 140.81L128.34 150.855C130.449 151.634 132.04 148.878 130.311 147.441L85.7281 110.4C85.3613 110.095 85.1154 109.669 85.0349 109.199L75.2484 52.0686Z" fill="#84FF00"/>
</svg>
